<?xml version="1.0"?>
<svg xmlns="http://www.w3.org/2000/svg" viewBox="0 0 50 50" enable-background="new 0 0 50 50">
    <path style="text-indent:0;text-align:start;line-height:normal;text-transform:none;block-progression:tb;-inkscape-font-specification:Bitstream Vera Sans" d="M 48.90625 0 A 0.99009901 0.99009901 0 0 0 48.53125 0.125 L 0.53125 26.125 A 0.99009901 0.99009901 0 0 0 0.6875 27.9375 L 14.3125 32.40625 L 13 45.90625 A 0.99009901 0.99009901 0 0 0 14.75 46.65625 L 23.34375 36.9375 L 36.3125 49.71875 A 0.99009901 0.99009901 0 0 0 37.96875 49.25 L 49.96875 1.25 A 0.99009901 0.99009901 0 0 0 48.90625 0 z M 47.46875 2.9375 L 36.4375 47.0625 L 24.59375 35.375 L 41.8125 11.59375 A 0.9946144 0.9946144 0 0 0 40.375 10.21875 L 15.21875 30.59375 L 3.5 26.78125 L 47.46875 2.9375 z M 35.78125 16.5 L 22.65625 34.71875 A 0.99009901 0.99009901 0 0 0 22.5625 34.84375 L 22.5 34.90625 A 0.99009901 0.99009901 0 0 0 22.4375 35 L 15.28125 43.03125 L 16.34375 32.21875 L 35.78125 16.5 z" overflow="visible" enable-background="accumulate" font-family="Bitstream Vera Sans"/>
</svg>
